<svg xmlns="http://www.w3.org/2000/svg" xmlns:xlink="http://www.w3.org/1999/xlink" width="500" zoomAndPan="magnify" viewBox="0 0 375 374.999991" height="500" preserveAspectRatio="xMidYMid meet" version="1.0"><defs><g/><clipPath id="id1"><path d="M 65.652344 167.34375 L 309.402344 167.34375 L 309.402344 207.84375 L 65.652344 207.84375 Z M 65.652344 167.34375 " clip-rule="nonzero"/></clipPath></defs><g fill="#ffffff" fill-opacity="1"><g transform="translate(97.73323, 253.874983)"><g><path d="M 33.007812 -111.421875 L 42.675781 -111.421875 C 49.316406 -111.421875 53.90625 -107.613281 53.90625 -99.410156 L 53.90625 -35.449219 C 53.90625 -28.808594 49.707031 -23.730469 43.164062 -23.535156 L 33.007812 -23.535156 Z M 7.03125 -3.710938 C 7.03125 -1.367188 8.105469 0 10.351562 0 L 44.433594 0 C 64.355469 -0.195312 79.878906 -12.207031 79.878906 -34.667969 L 79.878906 -100.484375 C 79.878906 -122.847656 64.453125 -134.957031 44.238281 -135.152344 L 10.351562 -135.152344 C 8.300781 -135.152344 7.03125 -133.6875 7.03125 -131.34375 Z M 7.03125 -3.710938 "/></g></g></g><g fill="#ffffff" fill-opacity="1"><g transform="translate(192.496742, 253.874983)"><g><path d="M 33.007812 -111.421875 L 42.675781 -111.421875 C 49.316406 -111.421875 53.90625 -107.613281 53.90625 -99.410156 L 53.90625 -35.449219 C 53.90625 -28.808594 49.707031 -23.730469 43.164062 -23.535156 L 33.007812 -23.535156 Z M 7.03125 -3.710938 C 7.03125 -1.367188 8.105469 0 10.351562 0 L 44.433594 0 C 64.355469 -0.195312 79.878906 -12.207031 79.878906 -34.667969 L 79.878906 -100.484375 C 79.878906 -122.847656 64.453125 -134.957031 44.238281 -135.152344 L 10.351562 -135.152344 C 8.300781 -135.152344 7.03125 -133.6875 7.03125 -131.34375 Z M 7.03125 -3.710938 "/></g></g></g><g clip-path="url(#id1)"><path fill="#000000" d="M 65.65625 167.34375 L 309.398438 167.34375 L 309.398438 207.84375 L 65.65625 207.84375 L 65.65625 167.34375 " fill-opacity="1" fill-rule="nonzero"/></g><g fill="#ffffff" fill-opacity="1"><g transform="translate(145.378318, 193.874987)"><g><path d="M 2.96875 -10.023438 L 3.839844 -10.023438 C 4.4375 -10.023438 4.847656 -9.679688 4.847656 -8.945312 L 4.847656 -3.1875 C 4.847656 -2.589844 4.472656 -2.136719 3.882812 -2.117188 L 2.96875 -2.117188 Z M 0.632812 -0.332031 C 0.632812 -0.121094 0.730469 0 0.929688 0 L 3.996094 0 C 5.789062 -0.015625 7.1875 -1.097656 7.1875 -3.117188 L 7.1875 -9.039062 C 7.1875 -11.050781 5.796875 -12.140625 3.980469 -12.160156 L 0.929688 -12.160156 C 0.746094 -12.160156 0.632812 -12.027344 0.632812 -11.816406 Z M 0.632812 -0.332031 "/></g></g></g><g fill="#ffffff" fill-opacity="1"><g transform="translate(162.272218, 193.874987)"><g><path d="M 2.96875 -2.117188 L 2.96875 -5.09375 L 5.535156 -5.09375 C 5.703125 -5.09375 5.816406 -5.183594 5.816406 -5.394531 L 5.816406 -6.898438 C 5.816406 -7.117188 5.683594 -7.203125 5.535156 -7.203125 L 2.96875 -7.203125 L 2.96875 -10.023438 L 6.183594 -10.023438 C 6.34375 -10.023438 6.429688 -10.128906 6.429688 -10.339844 L 6.429688 -11.832031 C 6.429688 -12.054688 6.34375 -12.160156 6.183594 -12.160156 L 0.929688 -12.160156 C 0.746094 -12.160156 0.632812 -12.027344 0.632812 -11.816406 L 0.632812 -0.332031 C 0.632812 -0.121094 0.730469 0 0.929688 0 L 6.230469 0 C 6.371094 0 6.484375 -0.0976562 6.484375 -0.308594 L 6.484375 -1.820312 C 6.484375 -2.019531 6.371094 -2.117188 6.230469 -2.117188 Z M 2.96875 -2.117188 "/></g></g></g><g fill="#ffffff" fill-opacity="1"><g transform="translate(178.226307, 193.874987)"><g><path d="M 3.425781 -4.8125 L 2.320312 -11.867188 C 2.292969 -12.070312 2.144531 -12.160156 1.96875 -12.160156 L 0.203125 -12.160156 C 0.0429688 -12.160156 -0.0078125 -12.027344 0.0351562 -11.816406 L 2.476562 -0.308594 C 2.53125 -0.0976562 2.636719 0 2.820312 0 L 4.21875 0 C 4.394531 0 4.5 -0.0976562 4.550781 -0.308594 L 6.992188 -11.832031 C 7.035156 -12.027344 6.992188 -12.160156 6.828125 -12.160156 L 5.058594 -12.160156 C 4.894531 -12.160156 4.734375 -12.070312 4.707031 -11.867188 L 3.609375 -4.8125 L 3.515625 -3.785156 Z M 3.425781 -4.8125 "/></g></g></g><g fill="#ffffff" fill-opacity="1"><g transform="translate(194.531731, 193.874987)"><g/></g></g><g fill="#ffffff" fill-opacity="1"><g transform="translate(207.87716, 193.874987)"><g><path d="M 2.96875 -10.023438 L 3.839844 -10.023438 C 4.4375 -10.023438 4.847656 -9.679688 4.847656 -8.945312 L 4.847656 -3.1875 C 4.847656 -2.589844 4.472656 -2.136719 3.882812 -2.117188 L 2.96875 -2.117188 Z M 0.632812 -0.332031 C 0.632812 -0.121094 0.730469 0 0.929688 0 L 3.996094 0 C 5.789062 -0.015625 7.1875 -1.097656 7.1875 -3.117188 L 7.1875 -9.039062 C 7.1875 -11.050781 5.796875 -12.140625 3.980469 -12.160156 L 0.929688 -12.160156 C 0.746094 -12.160156 0.632812 -12.027344 0.632812 -11.816406 Z M 0.632812 -0.332031 "/></g></g></g><g fill="#ffffff" fill-opacity="1"><g transform="translate(224.771059, 193.874987)"><g><path d="M 2.644531 -2.1875 L 2.8125 -2.496094 L 5.9375 -10.5 C 5.957031 -10.535156 5.972656 -10.621094 5.972656 -10.699219 L 5.972656 -11.859375 C 5.972656 -12.0625 5.914062 -12.160156 5.726562 -12.160156 L 0.570312 -12.160156 C 0.4375 -12.160156 0.351562 -12.0625 0.351562 -11.867188 L 0.351562 -10.382812 C 0.351562 -10.191406 0.429688 -10.09375 0.570312 -10.09375 L 3.460938 -10.09375 L 3.328125 -9.820312 L 0.289062 -1.75 C 0.253906 -1.679688 0.226562 -1.609375 0.21875 -1.503906 L 0.21875 -0.28125 C 0.21875 -0.0859375 0.308594 0 0.449219 0 L 5.894531 0 C 6.027344 0 6.105469 -0.0859375 6.105469 -0.28125 L 6.105469 -1.914062 C 6.105469 -2.101562 6.027344 -2.1875 5.894531 -2.1875 Z M 2.644531 -2.1875 "/></g></g></g><path stroke-linecap="butt" transform="matrix(1.500563, 0, 0, 1.5, 93.783896, 168.092773)" fill="none" stroke-linejoin="miter" d="M 0.000839891 0.000651359 L 124.953974 0.000651359 " stroke="#ffffff" stroke-width="1" stroke-opacity="1" stroke-miterlimit="4"/><path stroke-linecap="butt" transform="matrix(1.500563, 0, 0, 1.5, 93.783896, 206.907217)" fill="none" stroke-linejoin="miter" d="M 0.000839891 -0.000644542 L 124.953974 -0.000644542 " stroke="#ffffff" stroke-width="1" stroke-opacity="1" stroke-miterlimit="4"/></svg>